<?xml version="1.0" encoding="UTF-8" standalone="no"?>
<!DOCTYPE svg PUBLIC "-//W3C//DTD SVG 1.1//EN"
 "http://www.w3.org/Graphics/SVG/1.1/DTD/svg11.dtd">
<!-- Generated by graphviz version 2.26.3 (20100126.1600)
 -->
<!-- Title: G Pages: 1 -->
<svg width="1826pt" height="2065pt"
 viewBox="0.00 0.00 1826.00 2065.04" xmlns="http://www.w3.org/2000/svg" xmlns:xlink="http://www.w3.org/1999/xlink">
<g id="graph1" class="graph" transform="scale(1 1) rotate(0) translate(4 2061.04)">
<title>G</title>
<polygon fill="white" stroke="white" points="-4,5 -4,-2061.04 1823,-2061.04 1823,5 -4,5"/>
<g id="graph2" class="cluster"><title>cluster_Global</title>
<polyline fill="none" stroke="gray" points="487,-517.042 1798,-517.042 "/>
<path fill="none" stroke="gray" d="M1798,-517.042C1804,-517.042 1810,-523.042 1810,-529.042"/>
<polyline fill="none" stroke="gray" points="1810,-529.042 1810,-2037.04 "/>
<path fill="none" stroke="gray" d="M1810,-2037.04C1810,-2043.04 1804,-2049.04 1798,-2049.04"/>
<polyline fill="none" stroke="gray" points="1798,-2049.04 487,-2049.04 "/>
<path fill="none" stroke="gray" d="M487,-2049.04C481,-2049.04 475,-2043.04 475,-2037.04"/>
<polyline fill="none" stroke="gray" points="475,-2037.04 475,-529.042 "/>
<path fill="none" stroke="gray" d="M475,-529.042C475,-523.042 481,-517.042 487,-517.042"/>
<text text-anchor="middle" x="1142.5" y="-2035.14" font-family="Times Roman,serif" font-size="11.00" fill="gray">\</text>
</g>
<!-- \\ZendX_JQuery -->
<g id="node2" class="node"><title>\\ZendX_JQuery</title>
<polygon fill="none" stroke="black" points="1689,-2019.04 1597,-2019.04 1597,-1983.04 1689,-1983.04 1689,-2019.04"/>
<text text-anchor="middle" x="1643" y="-1998.14" font-family="Times Roman,serif" font-size="11.00">ZendX_JQuery</text>
</g>
<!-- \\ZendX_Exception -->
<g id="node3" class="node"><title>\\ZendX_Exception</title>
<polygon fill="none" stroke="black" points="650,-1967.04 538,-1967.04 538,-1931.04 650,-1931.04 650,-1967.04"/>
<text text-anchor="middle" x="594" y="-1946.14" font-family="Times Roman,serif" font-size="11.00">ZendX_Exception</text>
</g>
<!-- \\Zend_Exception -->
<g id="node48" class="node"><title>\\Zend_Exception</title>
<ellipse fill="none" stroke="black" cx="176" cy="-1974.04" rx="92.1303" ry="18.3848"/>
<text text-anchor="middle" x="176" y="-1970.44" font-family="Times Roman,serif" font-size="14.00" fill="gray">\Zend_Exception</text>
</g>
<!-- \\ZendX_Exception&#45;&gt;\\Zend_Exception -->
<g id="edge3" class="edge"><title>\\ZendX_Exception&#45;&gt;\\Zend_Exception</title>
<path fill="none" stroke="black" d="M537.627,-1952.41C470.348,-1956.44 356.674,-1963.24 274.713,-1968.14"/>
<polygon fill="none" stroke="black" points="274.402,-1964.65 264.629,-1968.74 274.82,-1971.64 274.402,-1964.65"/>
</g>
<!-- \\ZendX_JQuery_Form -->
<g id="node4" class="node"><title>\\ZendX_JQuery_Form</title>
<polygon fill="none" stroke="black" points="1707,-1047.04 1579,-1047.04 1579,-1011.04 1707,-1011.04 1707,-1047.04"/>
<text text-anchor="middle" x="1643" y="-1026.14" font-family="Times Roman,serif" font-size="11.00">ZendX_JQuery_Form</text>
</g>
<!-- \\Zend_Form -->
<g id="node50" class="node"><title>\\Zend_Form</title>
<ellipse fill="none" stroke="black" cx="1124" cy="-437.042" rx="68.7979" ry="18.3848"/>
<text text-anchor="middle" x="1124" y="-433.442" font-family="Times Roman,serif" font-size="14.00" fill="gray">\Zend_Form</text>
</g>
<!-- \\ZendX_JQuery_Form&#45;&gt;\\Zend_Form -->
<g id="edge5" class="edge"><title>\\ZendX_JQuery_Form&#45;&gt;\\Zend_Form</title>
<path fill="none" stroke="black" d="M1578.61,-1034.82C1545.87,-1034.08 1508.02,-1026.92 1484,-1002.04 1316.44,-828.484 1585.93,-631.219 1412,-464.042 1352.46,-406.811 1250.57,-411.967 1185.31,-422.974"/>
<polygon fill="none" stroke="black" points="1184.39,-419.582 1175.16,-424.782 1185.62,-426.474 1184.39,-419.582"/>
</g>
<!-- \\ZendX_JQuery_Exception -->
<g id="node5" class="node"><title>\\ZendX_JQuery_Exception</title>
<polygon fill="none" stroke="black" points="1200,-2019.04 1048,-2019.04 1048,-1983.04 1200,-1983.04 1200,-2019.04"/>
<text text-anchor="middle" x="1124" y="-1998.14" font-family="Times Roman,serif" font-size="11.00">ZendX_JQuery_Exception</text>
</g>
<!-- \\ZendX_JQuery_Exception&#45;&gt;\\Zend_Exception -->
<g id="edge7" class="edge"><title>\\ZendX_JQuery_Exception&#45;&gt;\\Zend_Exception</title>
<path fill="none" stroke="black" d="M1047.22,-1998.86C877.146,-1994.01 468.624,-1982.38 277.635,-1976.94"/>
<polygon fill="none" stroke="black" points="277.691,-1973.44 267.595,-1976.65 277.491,-1980.43 277.691,-1973.44"/>
</g>
<!-- \\ZendX_JQuery_View_Helper_TabPane -->
<g id="node6" class="node"><title>\\ZendX_JQuery_View_Helper_TabPane</title>
<polygon fill="none" stroke="black" points="1752,-1695.04 1534,-1695.04 1534,-1659.04 1752,-1659.04 1752,-1695.04"/>
<text text-anchor="middle" x="1643" y="-1674.14" font-family="Times Roman,serif" font-size="11.00">ZendX_JQuery_View_Helper_TabPane</text>
</g>
<!-- \\ZendX_JQuery_View_Helper_UiWidgetPane -->
<g id="node12" class="node"><title>\\ZendX_JQuery_View_Helper_UiWidgetPane</title>
<polygon fill="none" stroke="black" points="1248,-1695.04 1000,-1695.04 1000,-1659.04 1248,-1659.04 1248,-1695.04"/>
<text text-anchor="start" x="1094" y="-1682.48" font-family="Times Roman,serif" font-size="11.00">«abstract»</text>
<text text-anchor="start" x="1008" y="-1669.28" font-family="Times Roman,serif" font-size="11.00">ZendX_JQuery_View_Helper_UiWidgetPane</text>
</g>
<!-- \\ZendX_JQuery_View_Helper_TabPane&#45;&gt;\\ZendX_JQuery_View_Helper_UiWidgetPane -->
<g id="edge9" class="edge"><title>\\ZendX_JQuery_View_Helper_TabPane&#45;&gt;\\ZendX_JQuery_View_Helper_UiWidgetPane</title>
<path fill="none" stroke="black" d="M1533.88,-1677.04C1453.81,-1677.04 1344.55,-1677.04 1258.98,-1677.04"/>
<polygon fill="none" stroke="black" points="1258.93,-1673.54 1248.93,-1677.04 1258.93,-1680.54 1258.93,-1673.54"/>
</g>
<!-- \\ZendX_JQuery_View_Helper_TabContainer -->
<g id="node7" class="node"><title>\\ZendX_JQuery_View_Helper_TabContainer</title>
<polygon fill="none" stroke="black" points="1246,-1533.04 1002,-1533.04 1002,-1497.04 1246,-1497.04 1246,-1533.04"/>
<text text-anchor="middle" x="1124" y="-1512.14" font-family="Times Roman,serif" font-size="11.00">ZendX_JQuery_View_Helper_TabContainer</text>
</g>
<!-- \\ZendX_JQuery_View_Helper_UiWidget -->
<g id="node16" class="node"><title>\\ZendX_JQuery_View_Helper_UiWidget</title>
<polygon fill="none" stroke="black" points="705,-1668.04 483,-1668.04 483,-1632.04 705,-1632.04 705,-1668.04"/>
<text text-anchor="start" x="564" y="-1655.48" font-family="Times Roman,serif" font-size="11.00">«abstract»</text>
<text text-anchor="start" x="491.5" y="-1642.28" font-family="Times Roman,serif" font-size="11.00">ZendX_JQuery_View_Helper_UiWidget</text>
</g>
<!-- \\ZendX_JQuery_View_Helper_TabContainer&#45;&gt;\\ZendX_JQuery_View_Helper_UiWidget -->
<g id="edge11" class="edge"><title>\\ZendX_JQuery_View_Helper_TabContainer&#45;&gt;\\ZendX_JQuery_View_Helper_UiWidget</title>
<path fill="none" stroke="black" d="M1001.83,-1506.2C948.241,-1507.3 886.24,-1515.65 836,-1542.04 791.868,-1565.22 807.717,-1604.09 764,-1628.04 749.055,-1636.23 732.291,-1641.86 715.268,-1645.66"/>
<polygon fill="none" stroke="black" points="714.334,-1642.27 705.227,-1647.69 715.723,-1649.14 714.334,-1642.27"/>
</g>
<!-- \\ZendX_JQuery_View_Helper_AccordionContainer -->
<g id="node8" class="node"><title>\\ZendX_JQuery_View_Helper_AccordionContainer</title>
<polygon fill="none" stroke="black" points="1263,-1479.04 985,-1479.04 985,-1443.04 1263,-1443.04 1263,-1479.04"/>
<text text-anchor="middle" x="1124" y="-1458.14" font-family="Times Roman,serif" font-size="11.00">ZendX_JQuery_View_Helper_AccordionContainer</text>
</g>
<!-- \\ZendX_JQuery_View_Helper_AccordionContainer&#45;&gt;\\ZendX_JQuery_View_Helper_UiWidget -->
<g id="edge13" class="edge"><title>\\ZendX_JQuery_View_Helper_AccordionContainer&#45;&gt;\\ZendX_JQuery_View_Helper_UiWidget</title>
<path fill="none" stroke="black" d="M984.997,-1447.37C934.372,-1448.94 879.055,-1458.92 836,-1488.04 778.041,-1527.24 821.26,-1587.83 764,-1628.04 749.647,-1638.12 732.893,-1644.73 715.604,-1648.92"/>
<polygon fill="none" stroke="black" points="714.417,-1645.6 705.377,-1651.12 715.89,-1652.44 714.417,-1645.6"/>
</g>
<!-- \\ZendX_JQuery_View_Helper_JQuery -->
<g id="node9" class="node"><title>\\ZendX_JQuery_View_Helper_JQuery</title>
<polygon fill="none" stroke="black" points="1747,-993.042 1539,-993.042 1539,-957.042 1747,-957.042 1747,-993.042"/>
<text text-anchor="middle" x="1643" y="-972.142" font-family="Times Roman,serif" font-size="11.00">ZendX_JQuery_View_Helper_JQuery</text>
</g>
<!-- \\Zend_View_Helper_Abstract -->
<g id="node56" class="node"><title>\\Zend_View_Helper_Abstract</title>
<ellipse fill="none" stroke="black" cx="1124" cy="-383.042" rx="152.234" ry="18.3848"/>
<text text-anchor="middle" x="1124" y="-379.442" font-family="Times Roman,serif" font-size="14.00" fill="gray">\Zend_View_Helper_Abstract</text>
</g>
<!-- \\ZendX_JQuery_View_Helper_JQuery&#45;&gt;\\Zend_View_Helper_Abstract -->
<g id="edge15" class="edge"><title>\\ZendX_JQuery_View_Helper_JQuery&#45;&gt;\\Zend_View_Helper_Abstract</title>
<path fill="none" stroke="black" d="M1538.82,-976.293C1518.27,-971.723 1498.59,-963.15 1484,-948.042 1316.44,-774.484 1585.93,-577.219 1412,-410.042 1358.64,-358.757 1271.28,-357.569 1206.75,-365.796"/>
<polygon fill="none" stroke="black" points="1206.02,-362.363 1196.59,-367.191 1206.98,-369.298 1206.02,-362.363"/>
</g>
<!-- \\ZendX_JQuery_View_Helper_Spinner -->
<g id="node10" class="node"><title>\\ZendX_JQuery_View_Helper_Spinner</title>
<polygon fill="none" stroke="black" points="1231,-1911.04 1017,-1911.04 1017,-1875.04 1231,-1875.04 1231,-1911.04"/>
<text text-anchor="middle" x="1124" y="-1890.14" font-family="Times Roman,serif" font-size="11.00">ZendX_JQuery_View_Helper_Spinner</text>
</g>
<!-- \\ZendX_JQuery_View_Helper_Spinner&#45;&gt;\\ZendX_JQuery_View_Helper_UiWidget -->
<g id="edge17" class="edge"><title>\\ZendX_JQuery_View_Helper_Spinner&#45;&gt;\\ZendX_JQuery_View_Helper_UiWidget</title>
<path fill="none" stroke="black" d="M1016.73,-1898.73C960.762,-1897.86 892.393,-1890.62 836,-1866.04 737.14,-1822.95 650.766,-1723.46 613.518,-1676.06"/>
<polygon fill="none" stroke="black" points="616.244,-1673.86 607.348,-1668.11 610.714,-1678.15 616.244,-1673.86"/>
</g>
<!-- \\ZendX_JQuery_View_Helper_AjaxLink -->
<g id="node11" class="node"><title>\\ZendX_JQuery_View_Helper_AjaxLink</title>
<polygon fill="none" stroke="black" points="1752,-939.042 1534,-939.042 1534,-903.042 1752,-903.042 1752,-939.042"/>
<text text-anchor="middle" x="1643" y="-918.142" font-family="Times Roman,serif" font-size="11.00">ZendX_JQuery_View_Helper_AjaxLink</text>
</g>
<!-- \\Zend_View_Helper_HtmlElement -->
<g id="node59" class="node"><title>\\Zend_View_Helper_HtmlElement</title>
<ellipse fill="none" stroke="black" cx="176" cy="-980.042" rx="174.863" ry="18.3848"/>
<text text-anchor="middle" x="176" y="-976.442" font-family="Times Roman,serif" font-size="14.00" fill="gray">\Zend_View_Helper_HtmlElement</text>
</g>
<!-- \\ZendX_JQuery_View_Helper_AjaxLink&#45;&gt;\\Zend_View_Helper_HtmlElement -->
<g id="edge19" class="edge"><title>\\ZendX_JQuery_View_Helper_AjaxLink&#45;&gt;\\Zend_View_Helper_HtmlElement</title>
<path fill="none" stroke="black" d="M1533.91,-921.118C1515.15,-916.309 1497.42,-907.941 1484,-894.042 1316.44,-720.484 1593.55,-514.91 1412,-356.042 1363.84,-313.895 899.864,-351.875 836,-356.042 651.715,-368.067 571.535,-298.96 424,-410.042 238.462,-549.738 189.609,-857.377 178.751,-951.875"/>
<polygon fill="none" stroke="black" points="175.271,-951.507 177.659,-961.829 182.229,-952.27 175.271,-951.507"/>
</g>
<!-- \\ZendX_JQuery_View_Helper_UiWidgetPane&#45;&gt;\\ZendX_JQuery_View_Helper_UiWidget -->
<g id="edge21" class="edge"><title>\\ZendX_JQuery_View_Helper_UiWidgetPane&#45;&gt;\\ZendX_JQuery_View_Helper_UiWidget</title>
<path fill="none" stroke="black" d="M999.404,-1670.69C913.689,-1666.33 800.42,-1660.56 715.401,-1656.23"/>
<polygon fill="none" stroke="black" points="715.342,-1652.72 705.177,-1655.71 714.986,-1659.71 715.342,-1652.72"/>
</g>
<!-- \\ZendX_JQuery_View_Helper_AutoComplete -->
<g id="node13" class="node"><title>\\ZendX_JQuery_View_Helper_AutoComplete</title>
<polygon fill="none" stroke="black" points="1249,-1857.04 999,-1857.04 999,-1821.04 1249,-1821.04 1249,-1857.04"/>
<text text-anchor="middle" x="1124" y="-1836.14" font-family="Times Roman,serif" font-size="11.00">ZendX_JQuery_View_Helper_AutoComplete</text>
</g>
<!-- \\ZendX_JQuery_View_Helper_AutoComplete&#45;&gt;\\ZendX_JQuery_View_Helper_UiWidget -->
<g id="edge23" class="edge"><title>\\ZendX_JQuery_View_Helper_AutoComplete&#45;&gt;\\ZendX_JQuery_View_Helper_UiWidget</title>
<path fill="none" stroke="black" d="M998.477,-1840.66C946.892,-1837.93 887.338,-1830.3 836,-1812.04 749.182,-1781.17 663.324,-1712.14 621.063,-1674.94"/>
<polygon fill="none" stroke="black" points="623.244,-1672.2 613.446,-1668.16 618.59,-1677.42 623.244,-1672.2"/>
</g>
<!-- \\ZendX_JQuery_View_Helper_DatePicker -->
<g id="node14" class="node"><title>\\ZendX_JQuery_View_Helper_DatePicker</title>
<polygon fill="none" stroke="black" points="1239,-1803.04 1009,-1803.04 1009,-1767.04 1239,-1767.04 1239,-1803.04"/>
<text text-anchor="middle" x="1124" y="-1782.14" font-family="Times Roman,serif" font-size="11.00">ZendX_JQuery_View_Helper_DatePicker</text>
</g>
<!-- \\ZendX_JQuery_View_Helper_DatePicker&#45;&gt;\\ZendX_JQuery_View_Helper_UiWidget -->
<g id="edge25" class="edge"><title>\\ZendX_JQuery_View_Helper_DatePicker&#45;&gt;\\ZendX_JQuery_View_Helper_UiWidget</title>
<path fill="none" stroke="black" d="M1008.98,-1782.83C955.652,-1779.64 891.861,-1772.7 836,-1758.04 761.738,-1738.56 681.463,-1698.58 634.569,-1673.11"/>
<polygon fill="none" stroke="black" points="636.098,-1669.96 625.647,-1668.22 632.734,-1676.1 636.098,-1669.96"/>
</g>
<!-- \\ZendX_JQuery_View_Helper_JQuery_Container -->
<g id="node15" class="node"><title>\\ZendX_JQuery_View_Helper_JQuery_Container</title>
<polygon fill="none" stroke="black" points="1776,-1749.04 1510,-1749.04 1510,-1713.04 1776,-1713.04 1776,-1749.04"/>
<text text-anchor="middle" x="1643" y="-1728.14" font-family="Times Roman,serif" font-size="11.00">ZendX_JQuery_View_Helper_JQuery_Container</text>
</g>
<!-- \\ZendX_JQuery_View_Helper_UiWidget&#45;&gt;\\Zend_View_Helper_HtmlElement -->
<g id="edge27" class="edge"><title>\\ZendX_JQuery_View_Helper_UiWidget&#45;&gt;\\Zend_View_Helper_HtmlElement</title>
<path fill="none" stroke="black" d="M482.869,-1652.83C461.648,-1648.84 440.835,-1641.3 424,-1628.04 218.085,-1465.91 183.047,-1111.31 177.167,-1008.5"/>
<polygon fill="none" stroke="black" points="180.651,-1008.09 176.634,-998.289 173.66,-1008.46 180.651,-1008.09"/>
</g>
<!-- \\ZendX_JQuery_View_Helper_DialogContainer -->
<g id="node17" class="node"><title>\\ZendX_JQuery_View_Helper_DialogContainer</title>
<polygon fill="none" stroke="black" points="1253,-1749.04 995,-1749.04 995,-1713.04 1253,-1713.04 1253,-1749.04"/>
<text text-anchor="middle" x="1124" y="-1728.14" font-family="Times Roman,serif" font-size="11.00">ZendX_JQuery_View_Helper_DialogContainer</text>
</g>
<!-- \\ZendX_JQuery_View_Helper_DialogContainer&#45;&gt;\\ZendX_JQuery_View_Helper_UiWidget -->
<g id="edge29" class="edge"><title>\\ZendX_JQuery_View_Helper_DialogContainer&#45;&gt;\\ZendX_JQuery_View_Helper_UiWidget</title>
<path fill="none" stroke="black" d="M994.895,-1722.43C945.069,-1718.19 887.714,-1712.2 836,-1704.04 781.317,-1695.41 720.503,-1681.83 673.519,-1670.44"/>
<polygon fill="none" stroke="black" points="674.254,-1667.02 663.71,-1668.05 672.595,-1673.82 674.254,-1667.02"/>
</g>
<!-- \\ZendX_JQuery_View_Helper_AccordionPane -->
<g id="node18" class="node"><title>\\ZendX_JQuery_View_Helper_AccordionPane</title>
<polygon fill="none" stroke="black" points="1769,-1803.04 1517,-1803.04 1517,-1767.04 1769,-1767.04 1769,-1803.04"/>
<text text-anchor="middle" x="1643" y="-1782.14" font-family="Times Roman,serif" font-size="11.00">ZendX_JQuery_View_Helper_AccordionPane</text>
</g>
<!-- \\ZendX_JQuery_View_Helper_AccordionPane&#45;&gt;\\ZendX_JQuery_View_Helper_UiWidgetPane -->
<g id="edge31" class="edge"><title>\\ZendX_JQuery_View_Helper_AccordionPane&#45;&gt;\\ZendX_JQuery_View_Helper_UiWidgetPane</title>
<path fill="none" stroke="black" d="M1516.83,-1769.37C1505.52,-1766.26 1494.42,-1762.52 1484,-1758.04 1447.25,-1742.25 1449.31,-1718.45 1412,-1704.04 1364.01,-1685.51 1308.31,-1677.49 1258.75,-1674.53"/>
<polygon fill="none" stroke="black" points="1258.77,-1671.03 1248.6,-1673.99 1258.4,-1678.02 1258.77,-1671.03"/>
</g>
<!-- \\ZendX_JQuery_View_Helper_Slider -->
<g id="node19" class="node"><title>\\ZendX_JQuery_View_Helper_Slider</title>
<polygon fill="none" stroke="black" points="1225,-1587.04 1023,-1587.04 1023,-1551.04 1225,-1551.04 1225,-1587.04"/>
<text text-anchor="middle" x="1124" y="-1566.14" font-family="Times Roman,serif" font-size="11.00">ZendX_JQuery_View_Helper_Slider</text>
</g>
<!-- \\ZendX_JQuery_View_Helper_Slider&#45;&gt;\\ZendX_JQuery_View_Helper_UiWidget -->
<g id="edge33" class="edge"><title>\\ZendX_JQuery_View_Helper_Slider&#45;&gt;\\ZendX_JQuery_View_Helper_UiWidget</title>
<path fill="none" stroke="black" d="M1022.31,-1570.55C966.538,-1573.37 896.609,-1580.19 836,-1596.04 802.122,-1604.9 797.717,-1618.58 764,-1628.04 748.457,-1632.4 731.869,-1635.9 715.376,-1638.71"/>
<polygon fill="none" stroke="black" points="714.44,-1635.32 705.129,-1640.37 715.561,-1642.23 714.44,-1635.32"/>
</g>
<!-- \\ZendX_JQuery_View_Helper_ColorPicker -->
<g id="node20" class="node"><title>\\ZendX_JQuery_View_Helper_ColorPicker</title>
<polygon fill="none" stroke="black" points="1240,-1641.04 1008,-1641.04 1008,-1605.04 1240,-1605.04 1240,-1641.04"/>
<text text-anchor="middle" x="1124" y="-1620.14" font-family="Times Roman,serif" font-size="11.00">ZendX_JQuery_View_Helper_ColorPicker</text>
</g>
<!-- \\ZendX_JQuery_View_Helper_ColorPicker&#45;&gt;\\ZendX_JQuery_View_Helper_UiWidget -->
<g id="edge35" class="edge"><title>\\ZendX_JQuery_View_Helper_ColorPicker&#45;&gt;\\ZendX_JQuery_View_Helper_UiWidget</title>
<path fill="none" stroke="black" d="M1007.69,-1628.97C920.987,-1633.38 802.889,-1639.4 715.067,-1643.87"/>
<polygon fill="none" stroke="black" points="714.86,-1640.38 705.051,-1644.38 715.216,-1647.37 714.86,-1640.38"/>
</g>
<!-- \\ZendX_JQuery_View_Exception -->
<g id="node21" class="node"><title>\\ZendX_JQuery_View_Exception</title>
<polygon fill="none" stroke="black" points="1735,-1965.04 1551,-1965.04 1551,-1929.04 1735,-1929.04 1735,-1965.04"/>
<text text-anchor="middle" x="1643" y="-1944.14" font-family="Times Roman,serif" font-size="11.00">ZendX_JQuery_View_Exception</text>
</g>
<!-- \\ZendX_JQuery_View_Exception&#45;&gt;\\ZendX_JQuery_Exception -->
<g id="edge37" class="edge"><title>\\ZendX_JQuery_View_Exception&#45;&gt;\\ZendX_JQuery_Exception</title>
<path fill="none" stroke="black" d="M1550.32,-1958.36C1508.15,-1963.39 1457.58,-1969.24 1412,-1974.04 1344.51,-1981.15 1268.02,-1988.28 1210.84,-1993.42"/>
<polygon fill="none" stroke="black" points="1210.4,-1989.95 1200.75,-1994.33 1211.03,-1996.92 1210.4,-1989.95"/>
</g>
<!-- \\ZendX_JQuery_Controller_Action_Helper_AutoComplete -->
<g id="node22" class="node"><title>\\ZendX_JQuery_Controller_Action_Helper_AutoComplete</title>
<polygon fill="none" stroke="black" points="1801,-885.042 1485,-885.042 1485,-849.042 1801,-849.042 1801,-885.042"/>
<text text-anchor="middle" x="1643" y="-864.142" font-family="Times Roman,serif" font-size="11.00">ZendX_JQuery_Controller_Action_Helper_AutoComplete</text>
</g>
<!-- \\Zend_Controller_Action_Helper_AutoComplete_Abstract -->
<g id="node70" class="node"><title>\\Zend_Controller_Action_Helper_AutoComplete_Abstract</title>
<ellipse fill="none" stroke="black" cx="1124" cy="-291.042" rx="287.792" ry="18.3848"/>
<text text-anchor="middle" x="1124" y="-287.442" font-family="Times Roman,serif" font-size="14.00" fill="gray">\Zend_Controller_Action_Helper_AutoComplete_Abstract</text>
</g>
<!-- \\ZendX_JQuery_Controller_Action_Helper_AutoComplete&#45;&gt;\\Zend_Controller_Action_Helper_AutoComplete_Abstract -->
<g id="edge39" class="edge"><title>\\ZendX_JQuery_Controller_Action_Helper_AutoComplete&#45;&gt;\\Zend_Controller_Action_Helper_AutoComplete_Abstract</title>
<path fill="none" stroke="black" d="M1494.01,-848.821C1490.47,-846.175 1487.12,-843.257 1484,-840.042 1322.42,-673.568 1578.3,-484.798 1412,-323.042 1365.54,-277.854 1292.91,-270.042 1232.21,-273.432"/>
<polygon fill="none" stroke="black" points="1231.93,-269.943 1222.19,-274.098 1232.4,-276.927 1231.93,-269.943"/>
</g>
<!-- \\ZendX_JQuery_Form_Exception -->
<g id="node23" class="node"><title>\\ZendX_JQuery_Form_Exception</title>
<polygon fill="none" stroke="black" points="1737,-1911.04 1549,-1911.04 1549,-1875.04 1737,-1875.04 1737,-1911.04"/>
<text text-anchor="middle" x="1643" y="-1890.14" font-family="Times Roman,serif" font-size="11.00">ZendX_JQuery_Form_Exception</text>
</g>
<!-- \\ZendX_JQuery_Form_Exception&#45;&gt;\\ZendX_JQuery_Exception -->
<g id="edge41" class="edge"><title>\\ZendX_JQuery_Form_Exception&#45;&gt;\\ZendX_JQuery_Exception</title>
<path fill="none" stroke="black" d="M1548.81,-1901.47C1526.95,-1905.47 1504.19,-1911.36 1484,-1920.04 1447.25,-1935.83 1449.31,-1959.63 1412,-1974.04 1347.7,-1998.87 1269.56,-2004.84 1210.9,-2005.03"/>
<polygon fill="none" stroke="black" points="1210.56,-2001.53 1200.55,-2005 1210.54,-2008.53 1210.56,-2001.53"/>
</g>
<!-- \\ZendX_JQuery_Form_Element_Spinner -->
<g id="node24" class="node"><title>\\ZendX_JQuery_Form_Element_Spinner</title>
<polygon fill="none" stroke="black" points="1756,-1587.04 1530,-1587.04 1530,-1551.04 1756,-1551.04 1756,-1587.04"/>
<text text-anchor="middle" x="1643" y="-1566.14" font-family="Times Roman,serif" font-size="11.00">ZendX_JQuery_Form_Element_Spinner</text>
</g>
<!-- \\ZendX_JQuery_Form_Element_UiWidget -->
<g id="node27" class="node"><title>\\ZendX_JQuery_Form_Element_UiWidget</title>
<polygon fill="none" stroke="black" points="1240,-1425.04 1008,-1425.04 1008,-1389.04 1240,-1389.04 1240,-1425.04"/>
<text text-anchor="middle" x="1124" y="-1404.14" font-family="Times Roman,serif" font-size="11.00">ZendX_JQuery_Form_Element_UiWidget</text>
</g>
<!-- \\ZendX_JQuery_Form_Element_Spinner&#45;&gt;\\ZendX_JQuery_Form_Element_UiWidget -->
<g id="edge43" class="edge"><title>\\ZendX_JQuery_Form_Element_Spinner&#45;&gt;\\ZendX_JQuery_Form_Element_UiWidget</title>
<path fill="none" stroke="black" d="M1529.65,-1561.55C1513.51,-1557.21 1497.74,-1550.96 1484,-1542.04 1435.6,-1510.64 1461.54,-1463.61 1412,-1434.04 1364.3,-1405.57 1304.05,-1396.66 1251,-1395.73"/>
<polygon fill="none" stroke="black" points="1250.86,-1392.23 1240.83,-1395.64 1250.81,-1399.23 1250.86,-1392.23"/>
</g>
<!-- \\ZendX_JQuery_Form_Element_AutoComplete -->
<g id="node25" class="node"><title>\\ZendX_JQuery_Form_Element_AutoComplete</title>
<polygon fill="none" stroke="black" points="1774,-1533.04 1512,-1533.04 1512,-1497.04 1774,-1497.04 1774,-1533.04"/>
<text text-anchor="middle" x="1643" y="-1512.14" font-family="Times Roman,serif" font-size="11.00">ZendX_JQuery_Form_Element_AutoComplete</text>
</g>
<!-- \\ZendX_JQuery_Form_Element_AutoComplete&#45;&gt;\\ZendX_JQuery_Form_Element_UiWidget -->
<g id="edge45" class="edge"><title>\\ZendX_JQuery_Form_Element_AutoComplete&#45;&gt;\\ZendX_JQuery_Form_Element_UiWidget</title>
<path fill="none" stroke="black" d="M1511.4,-1497.82C1501.97,-1495.04 1492.75,-1491.8 1484,-1488.04 1447.25,-1472.25 1449.31,-1448.45 1412,-1434.04 1361.49,-1414.54 1302.45,-1406.67 1251.01,-1404.1"/>
<polygon fill="none" stroke="black" points="1250.97,-1400.6 1240.83,-1403.66 1250.67,-1407.59 1250.97,-1400.6"/>
</g>
<!-- \\ZendX_JQuery_Form_Element_DatePicker -->
<g id="node26" class="node"><title>\\ZendX_JQuery_Form_Element_DatePicker</title>
<polygon fill="none" stroke="black" points="1764,-1479.04 1522,-1479.04 1522,-1443.04 1764,-1443.04 1764,-1479.04"/>
<text text-anchor="middle" x="1643" y="-1458.14" font-family="Times Roman,serif" font-size="11.00">ZendX_JQuery_Form_Element_DatePicker</text>
</g>
<!-- \\ZendX_JQuery_Form_Element_DatePicker&#45;&gt;\\ZendX_JQuery_Form_Element_UiWidget -->
<g id="edge47" class="edge"><title>\\ZendX_JQuery_Form_Element_DatePicker&#45;&gt;\\ZendX_JQuery_Form_Element_UiWidget</title>
<path fill="none" stroke="black" d="M1521.97,-1446.37C1486.55,-1442.22 1447.74,-1437.81 1412,-1434.04 1359.32,-1428.49 1301.15,-1422.93 1250.97,-1418.31"/>
<polygon fill="none" stroke="black" points="1250.99,-1414.8 1240.72,-1417.37 1250.35,-1421.77 1250.99,-1414.8"/>
</g>
<!-- \\Zend_Form_Element -->
<g id="node76" class="node"><title>\\Zend_Form_Element</title>
<ellipse fill="none" stroke="black" cx="594" cy="-491.042" rx="114.759" ry="18.3848"/>
<text text-anchor="middle" x="594" y="-487.442" font-family="Times Roman,serif" font-size="14.00" fill="gray">\Zend_Form_Element</text>
</g>
<!-- \\ZendX_JQuery_Form_Element_UiWidget&#45;&gt;\\Zend_Form_Element -->
<g id="edge49" class="edge"><title>\\ZendX_JQuery_Form_Element_UiWidget&#45;&gt;\\Zend_Form_Element</title>
<path fill="none" stroke="black" d="M1007.14,-1404.33C946.809,-1396.41 877.368,-1375.91 836,-1326.04 720.202,-1186.44 889.636,-643.855 764,-513.042 749.051,-497.477 728.931,-488.965 707.768,-484.759"/>
<polygon fill="none" stroke="black" points="708.091,-481.265 697.651,-483.074 706.94,-488.169 708.091,-481.265"/>
</g>
<!-- \\ZendX_JQuery_Form_Element_Slider -->
<g id="node28" class="node"><title>\\ZendX_JQuery_Form_Element_Slider</title>
<polygon fill="none" stroke="black" points="1750,-1425.04 1536,-1425.04 1536,-1389.04 1750,-1389.04 1750,-1425.04"/>
<text text-anchor="middle" x="1643" y="-1404.14" font-family="Times Roman,serif" font-size="11.00">ZendX_JQuery_Form_Element_Slider</text>
</g>
<!-- \\ZendX_JQuery_Form_Element_Slider&#45;&gt;\\ZendX_JQuery_Form_Element_UiWidget -->
<g id="edge51" class="edge"><title>\\ZendX_JQuery_Form_Element_Slider&#45;&gt;\\ZendX_JQuery_Form_Element_UiWidget</title>
<path fill="none" stroke="black" d="M1535.46,-1407.04C1452.78,-1407.04 1338.32,-1407.04 1251.11,-1407.04"/>
<polygon fill="none" stroke="black" points="1250.88,-1403.54 1240.88,-1407.04 1250.88,-1410.54 1250.88,-1403.54"/>
</g>
<!-- \\ZendX_JQuery_Form_Element_ColorPicker -->
<g id="node29" class="node"><title>\\ZendX_JQuery_Form_Element_ColorPicker</title>
<polygon fill="none" stroke="black" points="1765,-1641.04 1521,-1641.04 1521,-1605.04 1765,-1605.04 1765,-1641.04"/>
<text text-anchor="middle" x="1643" y="-1620.14" font-family="Times Roman,serif" font-size="11.00">ZendX_JQuery_Form_Element_ColorPicker</text>
</g>
<!-- \\ZendX_JQuery_Form_Element_ColorPicker&#45;&gt;\\ZendX_JQuery_Form_Element_UiWidget -->
<g id="edge53" class="edge"><title>\\ZendX_JQuery_Form_Element_ColorPicker&#45;&gt;\\ZendX_JQuery_Form_Element_UiWidget</title>
<path fill="none" stroke="black" d="M1520.9,-1615.28C1507.6,-1610.77 1494.95,-1604.54 1484,-1596.04 1421.77,-1547.71 1475.99,-1480.02 1412,-1434.04 1366.12,-1401.08 1304.95,-1391.87 1250.78,-1391.91"/>
<polygon fill="none" stroke="black" points="1250.71,-1388.41 1240.75,-1392.02 1250.79,-1395.41 1250.71,-1388.41"/>
</g>
<!-- \\ZendX_JQuery_Form_Decorator_TabPane -->
<g id="node30" class="node"><title>\\ZendX_JQuery_Form_Decorator_TabPane</title>
<polygon fill="none" stroke="black" points="1762,-1371.04 1524,-1371.04 1524,-1335.04 1762,-1335.04 1762,-1371.04"/>
<text text-anchor="middle" x="1643" y="-1350.14" font-family="Times Roman,serif" font-size="11.00">ZendX_JQuery_Form_Decorator_TabPane</text>
</g>
<!-- \\ZendX_JQuery_Form_Decorator_UiWidgetPane -->
<g id="node34" class="node"><title>\\ZendX_JQuery_Form_Decorator_UiWidgetPane</title>
<polygon fill="none" stroke="black" points="1259,-1317.04 989,-1317.04 989,-1281.04 1259,-1281.04 1259,-1317.04"/>
<text text-anchor="start" x="1094" y="-1304.48" font-family="Times Roman,serif" font-size="11.00">«abstract»</text>
<text text-anchor="start" x="997.5" y="-1291.28" font-family="Times Roman,serif" font-size="11.00">ZendX_JQuery_Form_Decorator_UiWidgetPane</text>
</g>
<!-- \\ZendX_JQuery_Form_Decorator_TabPane&#45;&gt;\\ZendX_JQuery_Form_Decorator_UiWidgetPane -->
<g id="edge55" class="edge"><title>\\ZendX_JQuery_Form_Decorator_TabPane&#45;&gt;\\ZendX_JQuery_Form_Decorator_UiWidgetPane</title>
<path fill="none" stroke="black" d="M1523.28,-1340.59C1447.63,-1332.71 1349.4,-1322.49 1269.3,-1314.16"/>
<polygon fill="none" stroke="black" points="1269.43,-1310.65 1259.12,-1313.1 1268.71,-1317.62 1269.43,-1310.65"/>
</g>
<!-- \\ZendX_JQuery_Form_Decorator_TabContainer -->
<g id="node31" class="node"><title>\\ZendX_JQuery_Form_Decorator_TabContainer</title>
<polygon fill="none" stroke="black" points="1776,-1209.04 1510,-1209.04 1510,-1173.04 1776,-1173.04 1776,-1209.04"/>
<text text-anchor="middle" x="1643" y="-1188.14" font-family="Times Roman,serif" font-size="11.00">ZendX_JQuery_Form_Decorator_TabContainer</text>
</g>
<!-- \\ZendX_JQuery_Form_Decorator_UiWidgetContainer -->
<g id="node33" class="node"><title>\\ZendX_JQuery_Form_Decorator_UiWidgetContainer</title>
<polygon fill="none" stroke="black" points="1272,-1182.04 976,-1182.04 976,-1146.04 1272,-1146.04 1272,-1182.04"/>
<text text-anchor="start" x="1094" y="-1169.48" font-family="Times Roman,serif" font-size="11.00">«abstract»</text>
<text text-anchor="start" x="984" y="-1156.28" font-family="Times Roman,serif" font-size="11.00">ZendX_JQuery_Form_Decorator_UiWidgetContainer</text>
</g>
<!-- \\ZendX_JQuery_Form_Decorator_TabContainer&#45;&gt;\\ZendX_JQuery_Form_Decorator_UiWidgetContainer -->
<g id="edge57" class="edge"><title>\\ZendX_JQuery_Form_Decorator_TabContainer&#45;&gt;\\ZendX_JQuery_Form_Decorator_UiWidgetContainer</title>
<path fill="none" stroke="black" d="M1509.68,-1184.11C1440.55,-1180.51 1355.63,-1176.09 1283.09,-1172.32"/>
<polygon fill="none" stroke="black" points="1283.1,-1168.81 1272.94,-1171.79 1282.74,-1175.8 1283.1,-1168.81"/>
</g>
<!-- \\ZendX_JQuery_Form_Decorator_AccordionContainer -->
<g id="node32" class="node"><title>\\ZendX_JQuery_Form_Decorator_AccordionContainer</title>
<polygon fill="none" stroke="black" points="1793,-1155.04 1493,-1155.04 1493,-1119.04 1793,-1119.04 1793,-1155.04"/>
<text text-anchor="middle" x="1643" y="-1134.14" font-family="Times Roman,serif" font-size="11.00">ZendX_JQuery_Form_Decorator_AccordionContainer</text>
</g>
<!-- \\ZendX_JQuery_Form_Decorator_AccordionContainer&#45;&gt;\\ZendX_JQuery_Form_Decorator_UiWidgetContainer -->
<g id="edge59" class="edge"><title>\\ZendX_JQuery_Form_Decorator_AccordionContainer&#45;&gt;\\ZendX_JQuery_Form_Decorator_UiWidgetContainer</title>
<path fill="none" stroke="black" d="M1492.88,-1144.85C1427.1,-1148.27 1349.85,-1152.29 1283.08,-1155.77"/>
<polygon fill="none" stroke="black" points="1282.69,-1152.28 1272.88,-1156.3 1283.05,-1159.27 1282.69,-1152.28"/>
</g>
<!-- \\Zend_Form_Decorator_Abstract -->
<g id="node83" class="node"><title>\\Zend_Form_Decorator_Abstract</title>
<ellipse fill="none" stroke="black" cx="594" cy="-437.042" rx="169.205" ry="18.3848"/>
<text text-anchor="middle" x="594" y="-433.442" font-family="Times Roman,serif" font-size="14.00" fill="gray">\Zend_Form_Decorator_Abstract</text>
</g>
<!-- \\ZendX_JQuery_Form_Decorator_UiWidgetContainer&#45;&gt;\\Zend_Form_Decorator_Abstract -->
<g id="edge61" class="edge"><title>\\ZendX_JQuery_Form_Decorator_UiWidgetContainer&#45;&gt;\\Zend_Form_Decorator_Abstract</title>
<path fill="none" stroke="black" d="M975.427,-1170.26C924.453,-1164.45 871.388,-1148.16 836,-1110.04 639.458,-898.316 963.47,-673.012 764,-464.042 759.464,-459.29 754.453,-455.154 749.082,-451.565"/>
<polygon fill="none" stroke="black" points="750.745,-448.482 740.364,-446.365 747.159,-454.494 750.745,-448.482"/>
</g>
<!-- \\ZendX_JQuery_Form_Decorator_UiWidgetPane&#45;&gt;\\Zend_Form_Decorator_Abstract -->
<g id="edge63" class="edge"><title>\\ZendX_JQuery_Form_Decorator_UiWidgetPane&#45;&gt;\\Zend_Form_Decorator_Abstract</title>
<path fill="none" stroke="black" d="M991.457,-1280.96C934.807,-1266.24 873.264,-1239.52 836,-1191.04 737.058,-1062.33 875.372,-582.162 764,-464.042 759.493,-459.262 754.506,-455.104 749.156,-451.496"/>
<polygon fill="none" stroke="black" points="750.838,-448.423 740.465,-446.269 747.231,-454.422 750.838,-448.423"/>
</g>
<!-- \\ZendX_JQuery_Form_Decorator_DialogContainer -->
<g id="node35" class="node"><title>\\ZendX_JQuery_Form_Decorator_DialogContainer</title>
<polygon fill="none" stroke="black" points="1783,-1263.04 1503,-1263.04 1503,-1227.04 1783,-1227.04 1783,-1263.04"/>
<text text-anchor="middle" x="1643" y="-1242.14" font-family="Times Roman,serif" font-size="11.00">ZendX_JQuery_Form_Decorator_DialogContainer</text>
</g>
<!-- \\ZendX_JQuery_Form_Decorator_DialogContainer&#45;&gt;\\ZendX_JQuery_Form_Decorator_UiWidgetContainer -->
<g id="edge65" class="edge"><title>\\ZendX_JQuery_Form_Decorator_DialogContainer&#45;&gt;\\ZendX_JQuery_Form_Decorator_UiWidgetContainer</title>
<path fill="none" stroke="black" d="M1527.49,-1227.02C1445.03,-1214.15 1334.19,-1196.85 1249.54,-1183.64"/>
<polygon fill="none" stroke="black" points="1250.04,-1180.17 1239.62,-1182.09 1248.96,-1187.09 1250.04,-1180.17"/>
</g>
<!-- \\ZendX_JQuery_Form_Decorator_AccordionPane -->
<g id="node36" class="node"><title>\\ZendX_JQuery_Form_Decorator_AccordionPane</title>
<polygon fill="none" stroke="black" points="1780,-1317.04 1506,-1317.04 1506,-1281.04 1780,-1281.04 1780,-1317.04"/>
<text text-anchor="middle" x="1643" y="-1296.14" font-family="Times Roman,serif" font-size="11.00">ZendX_JQuery_Form_Decorator_AccordionPane</text>
</g>
<!-- \\ZendX_JQuery_Form_Decorator_AccordionPane&#45;&gt;\\ZendX_JQuery_Form_Decorator_UiWidgetPane -->
<g id="edge67" class="edge"><title>\\ZendX_JQuery_Form_Decorator_AccordionPane&#45;&gt;\\ZendX_JQuery_Form_Decorator_UiWidgetPane</title>
<path fill="none" stroke="black" d="M1505.96,-1299.04C1433.11,-1299.04 1343.54,-1299.04 1269.46,-1299.04"/>
<polygon fill="none" stroke="black" points="1269.11,-1295.54 1259.11,-1299.04 1269.11,-1302.54 1269.11,-1295.54"/>
</g>
<!-- \\ZendX_JQuery_Form_Decorator_UiWidgetElement -->
<g id="node37" class="node"><title>\\ZendX_JQuery_Form_Decorator_UiWidgetElement</title>
<polygon fill="none" stroke="black" points="1787,-1101.04 1499,-1101.04 1499,-1065.04 1787,-1065.04 1787,-1101.04"/>
<text text-anchor="middle" x="1643" y="-1080.14" font-family="Times Roman,serif" font-size="11.00">ZendX_JQuery_Form_Decorator_UiWidgetElement</text>
</g>
<!-- \\ZendX_JQuery_Form_Decorator_UiWidgetElementMarker -->
<g id="node46" class="node"><title>\\ZendX_JQuery_Form_Decorator_UiWidgetElementMarker</title>
<polygon fill="none" stroke="black" points="1287,-1101.04 961,-1101.04 961,-1065.04 1287,-1065.04 1287,-1101.04"/>
<text text-anchor="middle" x="1124" y="-1080.14" font-family="Times Roman,serif" font-size="11.00">ZendX_JQuery_Form_Decorator_UiWidgetElementMarker</text>
</g>
<!-- \\ZendX_JQuery_Form_Decorator_UiWidgetElement&#45;&gt;\\ZendX_JQuery_Form_Decorator_UiWidgetElementMarker -->
<g id="edge71" class="edge"><title>\\ZendX_JQuery_Form_Decorator_UiWidgetElement&#45;&gt;\\ZendX_JQuery_Form_Decorator_UiWidgetElementMarker</title>
<path fill="none" stroke="black" stroke-dasharray="1,5" d="M1498.77,-1083.04C1436.29,-1083.04 1362.61,-1083.04 1297.2,-1083.04"/>
<polygon fill="none" stroke="black" points="1297.19,-1079.54 1287.19,-1083.04 1297.19,-1086.54 1297.19,-1079.54"/>
</g>
<!-- \\Zend_Form_Decorator_ViewHelper -->
<g id="node88" class="node"><title>\\Zend_Form_Decorator_ViewHelper</title>
<ellipse fill="none" stroke="black" cx="1124" cy="-491.042" rx="184.763" ry="18.3848"/>
<text text-anchor="middle" x="1124" y="-487.442" font-family="Times Roman,serif" font-size="14.00" fill="gray">\Zend_Form_Decorator_ViewHelper</text>
</g>
<!-- \\ZendX_JQuery_Form_Decorator_UiWidgetElement&#45;&gt;\\Zend_Form_Decorator_ViewHelper -->
<g id="edge69" class="edge"><title>\\ZendX_JQuery_Form_Decorator_UiWidgetElement&#45;&gt;\\Zend_Form_Decorator_ViewHelper</title>
<path fill="none" stroke="black" d="M1498.73,-1068.18C1493.42,-1064.7 1488.47,-1060.68 1484,-1056.04 1315.02,-880.797 1588.86,-680.334 1412,-513.042 1357.36,-461.361 1267.9,-462.684 1203.16,-472.643"/>
<polygon fill="none" stroke="black" points="1202.3,-469.238 1193,-474.309 1203.43,-476.146 1202.3,-469.238"/>
</g>
<!-- \\ZendX_Db_Adapter_Firebird_Exception -->
<g id="node38" class="node"><title>\\ZendX_Db_Adapter_Firebird_Exception</title>
<polygon fill="none" stroke="black" points="1757,-831.042 1529,-831.042 1529,-795.042 1757,-795.042 1757,-831.042"/>
<text text-anchor="middle" x="1643" y="-810.142" font-family="Times Roman,serif" font-size="11.00">ZendX_Db_Adapter_Firebird_Exception</text>
</g>
<!-- \\Zend_Db_Adapter_Exception -->
<g id="node91" class="node"><title>\\Zend_Db_Adapter_Exception</title>
<ellipse fill="none" stroke="black" cx="1124" cy="-237.042" rx="155.771" ry="18.3848"/>
<text text-anchor="middle" x="1124" y="-233.442" font-family="Times Roman,serif" font-size="14.00" fill="gray">\Zend_Db_Adapter_Exception</text>
</g>
<!-- \\ZendX_Db_Adapter_Firebird_Exception&#45;&gt;\\Zend_Db_Adapter_Exception -->
<g id="edge73" class="edge"><title>\\ZendX_Db_Adapter_Firebird_Exception&#45;&gt;\\Zend_Db_Adapter_Exception</title>
<path fill="none" stroke="black" d="M1528.68,-811.621C1511.89,-806.646 1496.18,-798.607 1484,-786.042 1321,-617.882 1581.17,-425.996 1412,-264.042 1358.8,-213.112 1272.04,-211.673 1207.63,-219.736"/>
<polygon fill="none" stroke="black" points="1206.93,-216.298 1197.49,-221.106 1207.87,-223.235 1206.93,-216.298"/>
</g>
<!-- \\ZendX_Db_Adapter_Firebird -->
<g id="node39" class="node"><title>\\ZendX_Db_Adapter_Firebird</title>
<polygon fill="none" stroke="black" points="1727,-777.042 1559,-777.042 1559,-741.042 1727,-741.042 1727,-777.042"/>
<text text-anchor="middle" x="1643" y="-756.142" font-family="Times Roman,serif" font-size="11.00">ZendX_Db_Adapter_Firebird</text>
</g>
<!-- \\Zend_Db_Adapter_Abstract -->
<g id="node93" class="node"><title>\\Zend_Db_Adapter_Abstract</title>
<ellipse fill="none" stroke="black" cx="1124" cy="-183.042" rx="149.2" ry="18.3848"/>
<text text-anchor="middle" x="1124" y="-179.442" font-family="Times Roman,serif" font-size="14.00" fill="gray">\Zend_Db_Adapter_Abstract</text>
</g>
<!-- \\ZendX_Db_Adapter_Firebird&#45;&gt;\\Zend_Db_Adapter_Abstract -->
<g id="edge75" class="edge"><title>\\ZendX_Db_Adapter_Firebird&#45;&gt;\\Zend_Db_Adapter_Abstract</title>
<path fill="none" stroke="black" d="M1558.71,-763.49C1531.44,-760.493 1503.29,-751.945 1484,-732.042 1321,-563.882 1581.17,-371.996 1412,-210.042 1358.46,-158.782 1270.91,-157.657 1206.38,-165.894"/>
<polygon fill="none" stroke="black" points="1205.66,-162.46 1196.23,-167.29 1206.61,-169.395 1205.66,-162.46"/>
</g>
<!-- \\ZendX_Db_Statement_Firebird_Exception -->
<g id="node40" class="node"><title>\\ZendX_Db_Statement_Firebird_Exception</title>
<polygon fill="none" stroke="black" points="1765,-723.042 1521,-723.042 1521,-687.042 1765,-687.042 1765,-723.042"/>
<text text-anchor="middle" x="1643" y="-702.142" font-family="Times Roman,serif" font-size="11.00">ZendX_Db_Statement_Firebird_Exception</text>
</g>
<!-- \\Zend_Db_Statement_Exception -->
<g id="node95" class="node"><title>\\Zend_Db_Statement_Exception</title>
<ellipse fill="none" stroke="black" cx="1124" cy="-129.042" rx="168.999" ry="18.3848"/>
<text text-anchor="middle" x="1124" y="-125.442" font-family="Times Roman,serif" font-size="14.00" fill="gray">\Zend_Db_Statement_Exception</text>
</g>
<!-- \\ZendX_Db_Statement_Firebird_Exception&#45;&gt;\\Zend_Db_Statement_Exception -->
<g id="edge77" class="edge"><title>\\ZendX_Db_Statement_Firebird_Exception&#45;&gt;\\Zend_Db_Statement_Exception</title>
<path fill="none" stroke="black" d="M1520.71,-700.992C1506.95,-695.958 1494.23,-688.597 1484,-678.042 1321,-509.882 1581.17,-317.996 1412,-156.042 1359.23,-105.524 1273.44,-103.7 1209.19,-111.543"/>
<polygon fill="none" stroke="black" points="1208.53,-108.099 1199.08,-112.878 1209.45,-115.039 1208.53,-108.099"/>
</g>
<!-- \\ZendX_Db_Statement_Firebird -->
<g id="node41" class="node"><title>\\ZendX_Db_Statement_Firebird</title>
<polygon fill="none" stroke="black" points="1735,-669.042 1551,-669.042 1551,-633.042 1735,-633.042 1735,-669.042"/>
<text text-anchor="middle" x="1643" y="-648.142" font-family="Times Roman,serif" font-size="11.00">ZendX_Db_Statement_Firebird</text>
</g>
<!-- \\Zend_Db_Statement -->
<g id="node97" class="node"><title>\\Zend_Db_Statement</title>
<ellipse fill="none" stroke="black" cx="1124" cy="-75.042" rx="115.966" ry="18.3848"/>
<text text-anchor="middle" x="1124" y="-71.442" font-family="Times Roman,serif" font-size="14.00" fill="gray">\Zend_Db_Statement</text>
</g>
<!-- \\ZendX_Db_Statement_Firebird&#45;&gt;\\Zend_Db_Statement -->
<g id="edge79" class="edge"><title>\\ZendX_Db_Statement_Firebird&#45;&gt;\\Zend_Db_Statement</title>
<path fill="none" stroke="black" d="M1550.85,-654.469C1526.12,-650.748 1501.44,-642.035 1484,-624.042 1321,-455.882 1581.17,-263.996 1412,-102.042 1356.73,-49.1339 1265.25,-49.6363 1200.23,-58.7164"/>
<polygon fill="none" stroke="black" points="1199.4,-55.3009 1190.03,-60.2405 1200.43,-62.224 1199.4,-55.3009"/>
</g>
<!-- \\ZendX_Application_Resource_Jquery -->
<g id="node42" class="node"><title>\\ZendX_Application_Resource_Jquery</title>
<polygon fill="none" stroke="black" points="1749,-615.042 1537,-615.042 1537,-579.042 1749,-579.042 1749,-615.042"/>
<text text-anchor="middle" x="1643" y="-594.142" font-family="Times Roman,serif" font-size="11.00">ZendX_Application_Resource_Jquery</text>
</g>
<!-- \\Zend_Application_Resource_ResourceAbstract -->
<g id="node99" class="node"><title>\\Zend_Application_Resource_ResourceAbstract</title>
<ellipse fill="none" stroke="black" cx="1124" cy="-21.042" rx="237.795" ry="18.3848"/>
<text text-anchor="middle" x="1124" y="-17.442" font-family="Times Roman,serif" font-size="14.00" fill="gray">\Zend_Application_Resource_ResourceAbstract</text>
</g>
<!-- \\ZendX_Application_Resource_Jquery&#45;&gt;\\Zend_Application_Resource_ResourceAbstract -->
<g id="edge81" class="edge"><title>\\ZendX_Application_Resource_Jquery&#45;&gt;\\Zend_Application_Resource_ResourceAbstract</title>
<path fill="none" stroke="black" d="M1536.81,-597.779C1517.01,-593.103 1498.13,-584.618 1484,-570.042 1321,-401.882 1581.17,-209.996 1412,-48.042 1360.78,0.99277 1278.45,4.15103 1214.91,-2.87766"/>
<polygon fill="none" stroke="black" points="1214.39,0.585031 1204.88,-4.08772 1215.23,-6.36457 1214.39,0.585031"/>
</g>
<!-- \\ZendX_Console_Exception -->
<g id="node43" class="node"><title>\\ZendX_Console_Exception</title>
<polygon fill="none" stroke="black" points="1204,-1965.04 1044,-1965.04 1044,-1929.04 1204,-1929.04 1204,-1965.04"/>
<text text-anchor="middle" x="1124" y="-1944.14" font-family="Times Roman,serif" font-size="11.00">ZendX_Console_Exception</text>
</g>
<!-- \\ZendX_Console_Exception&#45;&gt;\\ZendX_Exception -->
<g id="edge83" class="edge"><title>\\ZendX_Console_Exception&#45;&gt;\\ZendX_Exception</title>
<path fill="none" stroke="black" d="M1043.22,-1947.35C938.509,-1947.74 757.857,-1948.42 660.604,-1948.79"/>
<polygon fill="none" stroke="black" points="660.299,-1945.29 650.313,-1948.83 660.326,-1952.29 660.299,-1945.29"/>
</g>
<!-- \\ZendX_Console_Process_Exception -->
<g id="node44" class="node"><title>\\ZendX_Console_Process_Exception</title>
<polygon fill="none" stroke="black" points="1747,-1857.04 1539,-1857.04 1539,-1821.04 1747,-1821.04 1747,-1857.04"/>
<text text-anchor="middle" x="1643" y="-1836.14" font-family="Times Roman,serif" font-size="11.00">ZendX_Console_Process_Exception</text>
</g>
<!-- \\ZendX_Console_Process_Exception&#45;&gt;\\ZendX_Console_Exception -->
<g id="edge85" class="edge"><title>\\ZendX_Console_Process_Exception&#45;&gt;\\ZendX_Console_Exception</title>
<path fill="none" stroke="black" d="M1538.31,-1849.53C1519.77,-1853.42 1500.98,-1858.75 1484,-1866.04 1447.25,-1881.83 1449.31,-1905.63 1412,-1920.04 1349.13,-1944.32 1273.04,-1950.56 1214.86,-1951.01"/>
<polygon fill="none" stroke="black" points="1214.57,-1947.51 1204.58,-1951.03 1214.59,-1954.51 1214.57,-1947.51"/>
</g>
<!-- \\ZendX_Console_Process_Unix -->
<g id="node45" class="node"><title>\\ZendX_Console_Process_Unix</title>
<polygon fill="none" stroke="black" points="1733,-561.042 1553,-561.042 1553,-525.042 1733,-525.042 1733,-561.042"/>
<text text-anchor="start" x="1613" y="-548.475" font-family="Times Roman,serif" font-size="11.00">«abstract»</text>
<text text-anchor="start" x="1561" y="-535.275" font-family="Times Roman,serif" font-size="11.00">ZendX_Console_Process_Unix</text>
</g>
</g>
</svg>
